G04 MADE WITH FRITZING*
G04 WWW.FRITZING.ORG*
G04 DOUBLE SIDED*
G04 HOLES PLATED*
G04 CONTOUR ON CENTER OF CONTOUR VECTOR*
%ASAXBY*%
%FSLAX23Y23*%
%MOIN*%
%OFA0B0*%
%SFA1.0B1.0*%
%ADD10C,0.094488*%
%ADD11C,0.079370*%
%ADD12C,0.075000*%
%ADD13C,0.077701*%
%ADD14C,0.070555*%
%ADD15C,0.070583*%
%ADD16C,0.074000*%
%ADD17R,0.070542X0.070570*%
%ADD18R,0.079370X0.079370*%
%ADD19R,0.074000X0.074000*%
%ADD20C,0.024000*%
%LNCOPPER0*%
G90*
G70*
G54D10*
X1936Y407D03*
X1926Y207D03*
X371Y623D03*
X371Y423D03*
X371Y223D03*
G54D11*
X2191Y1507D03*
X2191Y1307D03*
X2191Y1107D03*
X2191Y907D03*
G54D12*
X181Y911D03*
X581Y911D03*
G54D13*
X835Y809D03*
X835Y709D03*
X835Y609D03*
X835Y509D03*
X835Y409D03*
X835Y309D03*
X835Y209D03*
X835Y109D03*
X1535Y809D03*
X1535Y709D03*
X1535Y609D03*
X1535Y509D03*
X1535Y409D03*
X1535Y309D03*
X1535Y209D03*
X1535Y109D03*
G54D14*
X1805Y1682D03*
X1705Y1682D03*
X1605Y1682D03*
X1505Y1682D03*
X1405Y1682D03*
X1305Y1682D03*
X1205Y1682D03*
X1105Y1682D03*
X1005Y1682D03*
G54D15*
X905Y1682D03*
X805Y1682D03*
X705Y1682D03*
G54D14*
X605Y1682D03*
X505Y1682D03*
G54D15*
X405Y1682D03*
X305Y1682D03*
X205Y1682D03*
G54D14*
X1805Y1082D03*
X1705Y1082D03*
X1605Y1082D03*
X1505Y1082D03*
X1405Y1082D03*
X1305Y1082D03*
X1005Y1082D03*
G54D15*
X905Y1082D03*
G54D14*
X1105Y1082D03*
X1205Y1082D03*
G54D15*
X805Y1082D03*
X705Y1082D03*
G54D14*
X605Y1082D03*
X505Y1082D03*
G54D15*
X405Y1082D03*
X305Y1082D03*
X205Y1082D03*
G54D11*
X491Y2320D03*
X491Y2220D03*
X491Y2120D03*
X491Y2020D03*
X491Y1920D03*
G54D16*
X1855Y2318D03*
X1855Y2218D03*
X1855Y2118D03*
X1855Y2018D03*
X1855Y1918D03*
X944Y2319D03*
X944Y2219D03*
X944Y2119D03*
X944Y2019D03*
X944Y1919D03*
X1410Y2316D03*
X1410Y2216D03*
X1410Y2116D03*
X1410Y2016D03*
X1410Y1916D03*
G54D17*
X1805Y1682D03*
G54D18*
X491Y2320D03*
G54D19*
X1855Y2318D03*
X944Y2319D03*
X1410Y2316D03*
G54D20*
X514Y792D02*
X810Y623D01*
D02*
X106Y796D02*
X514Y792D01*
D02*
X96Y1425D02*
X106Y796D01*
D02*
X405Y1652D02*
X404Y1426D01*
D02*
X404Y1426D02*
X96Y1425D01*
D02*
X1304Y2061D02*
X1382Y2102D01*
D02*
X274Y1761D02*
X273Y2320D01*
D02*
X273Y2320D02*
X460Y2320D01*
D02*
X1106Y1754D02*
X274Y1761D01*
D02*
X1305Y1711D02*
X1304Y2061D01*
D02*
X1106Y1711D02*
X1106Y1754D01*
D02*
X2160Y907D02*
X1506Y899D01*
D02*
X1506Y899D02*
X1505Y1052D01*
D02*
X2160Y1307D02*
X609Y1302D01*
D02*
X609Y1302D02*
X606Y1111D01*
D02*
X2160Y1507D02*
X503Y1514D01*
D02*
X503Y1514D02*
X505Y1111D01*
G04 End of Copper0*
M02*