; NON-PLATED HOLES START AT T1
; THROUGH (PLATED) HOLES START AT T100
M48
INCH
T1C0.086614
T100C0.036076
T101C0.037222
T102C0.037250
T103C0.039370
T104C0.035000
T105C0.040000
T106C0.041000
%
T1
X001157Y023459
X022133Y023476
X001157Y001322
X022136Y001322
T100
X008354Y008085
X015347Y008085
X008354Y004086
X015347Y002087
X008354Y003087
X015347Y004086
X015347Y007085
X008354Y005086
X015347Y001088
X008354Y002087
X015347Y003087
X008354Y001088
X015347Y006085
X008354Y006085
X015347Y005086
X008354Y007085
T101
X017094Y011458
X011094Y017458
X010094Y017458
X018094Y011458
X016094Y017458
X018094Y017458
X013094Y011458
X006094Y017458
X014094Y011458
X015094Y011458
X012094Y017458
X014094Y017458
X017094Y017458
X005094Y017458
X016094Y011458
X006094Y011458
X005094Y011458
X011094Y011458
X015094Y017458
X013094Y017458
X010094Y011458
X012094Y011458
T102
X003094Y011458
X003094Y017458
X007094Y017458
X002094Y011458
X008094Y011458
X004094Y017458
X002094Y017458
X009094Y011458
X008094Y017458
X009094Y017458
X004094Y011458
X007094Y011458
T103
X021830Y010015
X019362Y004072
X004906Y022195
X004906Y019195
X004906Y021195
X004906Y020195
X003508Y001034
X004906Y023195
X021830Y012015
X003508Y003034
X003508Y005034
X021830Y014015
X019262Y002072
X021830Y016015
T104
X002013Y006613
X006013Y006613
T105
X014097Y020159
X014097Y019159
X018552Y019182
X018552Y022182
X018552Y021182
X009440Y020190
X009440Y022190
X014097Y022159
X018552Y020182
X018552Y023182
X014097Y023159
X009440Y021190
X009440Y023190
X009440Y019190
X014097Y021159
T106
X006119Y008738
X004119Y009738
X004119Y007738
T00
M30
