; NON-PLATED HOLES START AT T1
; THROUGH (PLATED) HOLES START AT T100
M48
INCH
T1C0.086614
T100C0.037222
T101C0.040000
T102C0.035000
T103C0.039370
T104C0.036076
T105C0.037250
%
T1
X022133Y023476
X001157Y001322
X001157Y023459
X022136Y001322
T100
X013053Y010816
X010053Y010816
X017053Y010816
X015053Y010816
X016053Y016815
X006053Y016815
X013053Y016815
X016053Y010816
X011053Y010816
X014053Y016815
X017053Y016815
X018053Y016815
X012053Y010816
X010053Y016815
X011053Y016815
X015053Y016815
X005053Y016815
X012053Y016815
X005053Y010816
X018053Y010816
X014053Y010816
X006053Y010816
T101
X018552Y022182
X009440Y023190
X018552Y021182
X009440Y019190
X009440Y021190
X014097Y020159
X009440Y020190
X009440Y022190
X014097Y022159
X018552Y019182
X018552Y023182
X014097Y023159
X018552Y020182
X014097Y021159
X014097Y019159
T102
X005812Y009105
X001812Y009105
T103
X021907Y011070
X004906Y023195
X021907Y013070
X019362Y004072
X003708Y004233
X019262Y002072
X004906Y019195
X021907Y009070
X004906Y020195
X004906Y021195
X003708Y006233
X004906Y022195
X021907Y015070
X003708Y002233
T104
X015347Y002087
X008354Y002087
X015347Y001088
X015347Y008085
X015347Y005086
X008354Y007085
X008354Y008085
X015347Y003087
X008354Y001088
X015347Y006085
X008354Y005086
X015347Y007085
X008354Y004086
X008354Y003087
X008354Y006085
X015347Y004086
T105
X007053Y016815
X008053Y010816
X003053Y010816
X009053Y016815
X003053Y016815
X008053Y016815
X002053Y016815
X004053Y016815
X004053Y010816
X002053Y010816
X009053Y010816
X007053Y010816
T00
M30
